<svg width="360" height="100" viewBox="0 0 360 100" fill="none" xmlns="http://www.w3.org/2000/svg">
<g clip-path="url(#clip0)">
<path d="M123.68 45.92L121.701 50.5116L121.715 50.5177L121.729 50.5238L123.68 45.92ZM118.16 41.6L114.109 44.5306L114.109 44.5306L118.16 41.6ZM116.06 34.94V29.94H110.981L111.061 35.0181L116.06 34.94ZM125.06 34.94L130.048 34.592L129.723 29.94H125.06V34.94ZM126.86 39.02L123.463 42.6888L123.496 42.7195L123.53 42.7497L126.86 39.02ZM136.04 39.14L139.214 43.0036L139.254 42.9704L139.294 42.9363L136.04 39.14ZM136.58 32.36L132.955 35.8037L132.955 35.8037L136.58 32.36ZM133.7 30.5L131.73 35.0957L131.828 35.1374L131.927 35.175L133.7 30.5ZM129.02 28.94L127.609 33.7368L127.64 33.746L127.672 33.7548L129.02 28.94ZM122.36 26.6L120.21 31.1143L120.274 31.1448L120.339 31.1734L122.36 26.6ZM117.98 23.06L113.98 26.06L114.022 26.1162L114.066 26.1712L117.98 23.06ZM118.04 10.22L122.186 13.0143L122.186 13.0143L118.04 10.22ZM123.26 6.02L125.23 10.6157L125.264 10.601L125.298 10.5857L123.26 6.02ZM141.44 7.7L138.338 11.6214L138.37 11.6469L138.403 11.6718L141.44 7.7ZM145.94 16.46V21.46H151.326L150.926 16.0887L145.94 16.46ZM136.7 16.46L131.708 16.7374L131.97 21.46H136.7V16.46ZM134.84 12.92L131.586 16.7163L131.658 16.7783L131.733 16.8375L134.84 12.92ZM126.38 12.74L123.164 8.91147L123.125 8.94391L123.087 8.97712L126.38 12.74ZM126.02 19.22L122.39 22.6587L122.483 22.7568L122.581 22.8498L126.02 19.22ZM128.78 21.02L126.749 25.5891L126.85 25.6336L126.952 25.6738L128.78 21.02ZM133.46 22.58L132.023 27.3691L132.036 27.373L132.049 27.3768L133.46 22.58ZM144.56 28.58L140.608 31.6429L140.608 31.6429L144.56 28.58ZM144.68 41.12L140.4 38.5344L140.4 38.5344L144.68 41.12ZM139.58 45.74L141.816 50.2121L141.848 50.1963L141.879 50.18L139.58 45.74ZM131.6 42.42C129.257 42.42 127.294 42.0208 125.631 41.3162L121.729 50.5238C124.786 51.8192 128.103 52.42 131.6 52.42V42.42ZM125.659 41.3284C124.091 40.6524 122.996 39.7549 122.211 38.6694L114.109 44.5306C116.044 47.2051 118.629 49.1876 121.701 50.5116L125.659 41.3284ZM122.211 38.6694C121.514 37.706 121.085 36.5073 121.059 34.8619L111.061 35.0181C111.115 38.4927 112.086 41.7339 114.109 44.5306L122.211 38.6694ZM116.06 39.94H125.06V29.94H116.06V39.94ZM120.072 35.288C120.264 38.0446 121.292 40.6783 123.463 42.6888L130.257 35.3512C130.223 35.3199 130.202 35.2933 130.175 35.2318C130.142 35.1576 130.074 34.9661 130.048 34.592L120.072 35.288ZM123.53 42.7497C125.799 44.7758 128.625 45.52 131.42 45.52V35.52C130.888 35.52 130.569 35.4502 130.402 35.3954C130.252 35.3459 130.204 35.3028 130.19 35.2903L123.53 42.7497ZM131.42 45.52C134.13 45.52 136.928 44.881 139.214 43.0036L132.866 35.2764C132.865 35.2776 132.852 35.2882 132.819 35.3055C132.784 35.3233 132.72 35.3526 132.614 35.3842C132.397 35.449 132.018 35.52 131.42 35.52V45.52ZM139.294 42.9363C141.56 40.9937 142.72 38.3487 142.72 35.42H132.72C132.72 35.4923 132.713 35.5202 132.715 35.5133C132.717 35.5048 132.724 35.4744 132.743 35.4321C132.762 35.3894 132.784 35.355 132.801 35.3329C132.817 35.3119 132.817 35.3168 132.786 35.3437L139.294 42.9363ZM142.72 35.42C142.72 33.0701 141.959 30.763 140.205 28.9163L132.955 35.8037C132.921 35.7684 132.881 35.7186 132.841 35.6554C132.802 35.5921 132.771 35.5284 132.75 35.4705C132.705 35.3501 132.72 35.3139 132.72 35.42H142.72ZM140.205 28.9163C138.867 27.5078 137.247 26.4979 135.473 25.825L131.927 35.175C132.473 35.3821 132.773 35.6122 132.955 35.8037L140.205 28.9163ZM135.67 25.9043C134.256 25.2983 132.455 24.7094 130.368 24.1252L127.672 33.7548C129.585 34.2905 130.904 34.7417 131.73 35.0957L135.67 25.9043ZM130.431 24.1432C127.826 23.377 125.83 22.667 124.381 22.0266L120.339 31.1734C122.33 32.053 124.774 32.903 127.609 33.7368L130.431 24.1432ZM124.51 22.0857C123.565 21.6359 122.695 20.9561 121.894 19.9488L114.066 26.1712C115.745 28.2839 117.795 29.9641 120.21 31.1143L124.51 22.0857ZM121.98 20.06C121.609 19.5659 121.18 18.6031 121.18 16.7H111.18C111.18 20.0769 111.951 23.3541 113.98 26.06L121.98 20.06ZM121.18 16.7C121.18 15.094 121.567 13.9332 122.186 13.0143L113.894 7.42573C112.033 10.1868 111.18 13.346 111.18 16.7H121.18ZM122.186 13.0143C122.837 12.0492 123.783 11.2357 125.23 10.6157L121.29 1.42427C118.257 2.72432 115.723 4.71076 113.894 7.42573L122.186 13.0143ZM125.298 10.5857C126.795 9.91751 128.641 9.52 130.94 9.52V-0.48C127.479 -0.48 124.205 0.12249 121.222 1.45431L125.298 10.5857ZM130.94 9.52C134.437 9.52 136.752 10.3671 138.338 11.6214L144.542 3.77858C140.768 0.792866 136.083 -0.48 130.94 -0.48V9.52ZM138.403 11.6718C139.867 12.7913 140.768 14.3335 140.954 16.8313L150.926 16.0887C150.552 11.0665 148.453 6.76873 144.477 3.72821L138.403 11.6718ZM145.94 11.46H136.7V21.46H145.94V11.46ZM141.692 16.1826C141.531 13.2729 140.193 10.7837 137.947 9.00251L131.733 16.8375C131.785 16.8784 131.8 16.8982 131.795 16.8917C131.788 16.8842 131.769 16.86 131.749 16.8206C131.728 16.7811 131.715 16.7446 131.708 16.7194C131.702 16.6953 131.706 16.6981 131.708 16.7374L141.692 16.1826ZM138.094 9.12372C135.842 7.1931 133.077 6.48 130.34 6.48V16.48C130.86 16.48 131.178 16.5468 131.351 16.6021C131.509 16.6527 131.566 16.6992 131.586 16.7163L138.094 9.12372ZM130.34 6.48C127.833 6.48 125.276 7.13716 123.164 8.91147L129.596 16.5685C129.566 16.5937 129.56 16.5838 129.636 16.5596C129.725 16.5312 129.943 16.48 130.34 16.48V6.48ZM123.087 8.97712C120.777 10.9991 119.94 13.7535 119.94 16.4H129.94C129.94 16.0925 129.987 16.0296 129.953 16.1156C129.935 16.1601 129.902 16.2281 129.848 16.3059C129.793 16.3842 129.732 16.4511 129.673 16.5029L123.087 8.97712ZM119.94 16.4C119.94 18.7012 120.725 20.9011 122.39 22.6587L129.65 15.7813C129.723 15.8584 129.815 15.9891 129.879 16.1568C129.941 16.3184 129.94 16.4174 129.94 16.4H119.94ZM122.581 22.8498C123.803 24.0075 125.216 24.9077 126.749 25.5891L130.811 16.4509C130.184 16.1723 129.757 15.8725 129.459 15.5902L122.581 22.8498ZM126.952 25.6738C128.26 26.1878 129.972 26.7537 132.023 27.3691L134.897 17.7909C132.948 17.2063 131.54 16.7322 130.608 16.3662L126.952 25.6738ZM132.049 27.3768C134.635 28.1373 136.598 28.8563 138.011 29.5136L142.229 20.4464C140.202 19.5037 137.725 18.6227 134.871 17.7832L132.049 27.3768ZM138.011 29.5136C138.96 29.9549 139.823 30.6297 140.608 31.6429L148.512 25.5171C146.817 23.3303 144.72 21.6051 142.229 20.4464L138.011 29.5136ZM140.608 31.6429C140.996 32.1441 141.42 33.0704 141.42 34.88H151.42C151.42 31.4896 150.604 28.2159 148.512 25.5171L140.608 31.6429ZM141.42 34.88C141.42 36.2072 141.09 37.3933 140.4 38.5344L148.96 43.7056C150.59 41.0067 151.42 38.0328 151.42 34.88H141.42ZM140.4 38.5344C139.774 39.5705 138.807 40.5097 137.281 41.3L141.879 50.18C144.833 48.6503 147.266 46.5095 148.96 43.7056L140.4 38.5344ZM137.344 41.2679C135.94 41.97 134.079 42.42 131.6 42.42V52.42C135.281 52.42 138.74 51.75 141.816 50.2121L137.344 41.2679ZM182.203 5.12H187.203V0.119999H182.203V5.12ZM182.203 11.9V16.9H187.203V11.9H182.203ZM171.043 11.9V6.9H166.043V11.9H171.043ZM171.043 47V52H176.043V47H171.043ZM162.643 47H157.643V52H162.643V47ZM162.643 11.9H167.643V6.9H162.643V11.9ZM151.483 11.9H146.483V16.9H151.483V11.9ZM151.483 5.12V0.119999H146.483V5.12H151.483ZM177.203 5.12V11.9H187.203V5.12H177.203ZM182.203 6.9H171.043V16.9H182.203V6.9ZM166.043 11.9V47H176.043V11.9H166.043ZM171.043 42H162.643V52H171.043V42ZM167.643 47V11.9H157.643V47H167.643ZM162.643 6.9H151.483V16.9H162.643V6.9ZM156.483 11.9V5.12H146.483V11.9H156.483ZM151.483 10.12H182.203V0.119999H151.483V10.12ZM209.931 47L205.58 49.4634L207.017 52H209.931V47ZM200.691 30.68L205.042 28.2166L203.606 25.68H200.691V30.68ZM196.731 30.68V25.68H191.731V30.68H196.731ZM196.731 47V52H201.731V47H196.731ZM188.331 47H183.331V52H188.331V47ZM188.331 5.12V0.119999H183.331V5.12H188.331ZM212.331 6.86L210.064 11.3164L210.095 11.3323L210.127 11.3478L212.331 6.86ZM217.431 11.48L213.09 13.9607L213.12 14.0135L213.152 14.0656L217.431 11.48ZM216.771 25.46L220.815 28.4009L220.828 28.3836L220.84 28.3662L216.771 25.46ZM209.631 30.02L208.347 25.1878L201.974 26.8819L205.325 32.5611L209.631 30.02ZM219.651 47V52H228.408L223.958 44.4589L219.651 47ZM196.731 24.38H191.731V29.38H196.731V24.38ZM208.851 22.76L212.322 26.3592L212.355 26.3277L212.387 26.2955L208.851 22.76ZM208.851 13.7L205.381 17.2992L205.415 17.3319L205.449 17.364L208.851 13.7ZM196.731 12.08V7.08H191.731V12.08H196.731ZM214.282 44.5366L205.042 28.2166L196.34 33.1434L205.58 49.4634L214.282 44.5366ZM200.691 25.68H196.731V35.68H200.691V25.68ZM191.731 30.68V47H201.731V30.68H191.731ZM196.731 42H188.331V52H196.731V42ZM193.331 47V5.12H183.331V47H193.331ZM188.331 10.12H204.051V0.119999H188.331V10.12ZM204.051 10.12C206.708 10.12 208.649 10.5962 210.064 11.3164L214.599 2.40361C211.454 0.803796 207.875 0.119999 204.051 0.119999V10.12ZM210.127 11.3478C211.627 12.0844 212.527 12.9744 213.09 13.9607L221.773 8.99931C220.096 6.06564 217.596 3.87555 214.536 2.37223L210.127 11.3478ZM213.152 14.0656C213.807 15.1507 214.171 16.4052 214.171 17.96H224.171C224.171 14.7148 223.375 11.6493 221.711 8.89442L213.152 14.0656ZM214.171 17.96C214.171 19.6808 213.695 21.1642 212.703 22.5538L220.84 28.3662C223.048 25.2758 224.171 21.7592 224.171 17.96H214.171ZM212.728 22.5191C211.932 23.613 210.63 24.5809 208.347 25.1878L210.916 34.8522C214.953 33.7791 218.411 31.707 220.815 28.4009L212.728 22.5191ZM205.325 32.5611L215.345 49.5411L223.958 44.4589L213.938 27.4789L205.325 32.5611ZM219.651 42H209.931V52H219.651V42ZM196.731 29.38H203.751V19.38H196.731V29.38ZM203.751 29.38C206.728 29.38 209.914 28.6812 212.322 26.3592L205.381 19.1608C205.549 18.9988 205.334 19.38 203.751 19.38V29.38ZM212.387 26.2955C214.657 24.0257 215.531 21.0924 215.531 18.14H205.531C205.531 18.6485 205.459 18.9296 205.412 19.0563C205.373 19.164 205.341 19.1991 205.316 19.2245L212.387 26.2955ZM215.531 18.14C215.531 15.2098 214.641 12.253 212.254 10.036L205.449 17.364C205.424 17.3404 205.418 17.3145 205.435 17.3595C205.461 17.4277 205.531 17.6593 205.531 18.14H215.531ZM212.322 10.1008C209.914 7.77877 206.728 7.08 203.751 7.08V17.08C205.334 17.08 205.549 17.4612 205.381 17.2992L212.322 10.1008ZM203.751 7.08H196.731V17.08H203.751V7.08ZM191.731 12.08V24.38H201.731V12.08H191.731ZM235.409 44.66L237.855 40.2993L237.855 40.2993L235.409 44.66ZM227.609 37.04L223.294 39.5659L223.301 39.5775L223.307 39.589L227.609 37.04ZM227.609 14.96L231.91 17.509L231.917 17.4975L231.924 17.4859L227.609 14.96ZM235.409 7.28L232.963 2.91928L232.963 2.91928L235.409 7.28ZM257.009 7.28L254.54 11.6278L254.551 11.6343L254.563 11.6407L257.009 7.28ZM264.749 14.96L260.411 17.4464L260.429 17.4778L260.447 17.509L264.749 14.96ZM264.749 37.04L260.434 34.5141L260.429 34.5223L260.424 34.5306L264.749 37.04ZM257.009 44.66L254.563 40.2993L254.563 40.2993L257.009 44.66ZM252.869 38.24L255.388 42.5589L255.422 42.5395L255.454 42.5196L252.869 38.24ZM257.369 33.32L261.824 35.5896L261.824 35.5896L257.369 33.32ZM257.369 18.62L252.914 20.8896L252.923 20.9069L252.931 20.9241L257.369 18.62ZM252.869 13.76L250.35 18.0789L250.35 18.0789L252.869 13.76ZM239.489 13.76L237.008 9.41878L236.989 9.42986L236.97 9.4411L239.489 13.76ZM234.989 18.62L239.426 20.9241L239.435 20.9069L239.444 20.8896L234.989 18.62ZM234.989 33.32L239.444 31.0504L239.444 31.0504L234.989 33.32ZM239.489 38.24L236.903 42.5196L236.955 42.551L237.008 42.5812L239.489 38.24ZM246.209 42.42C243.108 42.42 240.356 41.7021 237.855 40.2993L232.963 49.0207C237.022 51.2979 241.47 52.42 246.209 52.42V42.42ZM237.855 40.2993C235.343 38.8902 233.383 36.9756 231.91 34.491L223.307 39.589C225.675 43.5844 228.915 46.7498 232.963 49.0207L237.855 40.2993ZM231.924 34.5141C230.49 32.0642 229.729 29.2492 229.729 25.94H219.729C219.729 30.8708 220.888 35.4558 223.294 39.5659L231.924 34.5141ZM229.729 25.94C229.729 22.6797 230.485 19.9135 231.91 17.509L223.307 12.411C220.892 16.4865 219.729 21.0403 219.729 25.94H229.729ZM231.924 17.4859C233.4 14.9641 235.359 13.0412 237.855 11.6407L232.963 2.91928C228.899 5.19879 225.658 8.39585 223.294 12.4341L231.924 17.4859ZM237.855 11.6407C240.356 10.2379 243.108 9.52 246.209 9.52V-0.48C241.47 -0.48 237.022 0.642066 232.963 2.91928L237.855 11.6407ZM246.209 9.52C249.36 9.52 252.1 10.2422 254.54 11.6278L259.478 2.93219C255.438 0.637763 250.978 -0.48 246.209 -0.48V9.52ZM254.563 11.6407C257.05 13.036 258.978 14.9463 260.411 17.4464L269.087 12.4736C266.76 8.41365 263.528 5.204 259.455 2.91928L254.563 11.6407ZM260.447 17.509C261.872 19.9135 262.629 22.6797 262.629 25.94H272.629C272.629 21.0403 271.465 16.4865 269.05 12.411L260.447 17.509ZM262.629 25.94C262.629 29.2492 261.868 32.0642 260.434 34.5141L269.064 39.5659C271.47 35.4558 272.629 30.8708 272.629 25.94H262.629ZM260.424 34.5306C258.995 36.9933 257.065 38.8953 254.563 40.2993L259.455 49.0207C263.512 46.7447 266.743 43.5667 269.074 39.5494L260.424 34.5306ZM254.563 40.2993C252.062 41.7021 249.31 42.42 246.209 42.42V52.42C250.948 52.42 255.396 51.2979 259.455 49.0207L254.563 40.2993ZM246.209 44.92C249.494 44.92 252.606 44.1821 255.388 42.5589L250.35 33.9211C249.292 34.5379 247.964 34.92 246.209 34.92V44.92ZM255.454 42.5196C258.222 40.8475 260.347 38.4883 261.824 35.5896L252.914 31.0504C252.23 32.3917 251.356 33.3125 250.283 33.9604L255.454 42.5196ZM261.824 35.5896C263.32 32.6524 263.989 29.3898 263.989 25.94H253.989C253.989 28.0902 253.577 29.7476 252.914 31.0504L261.824 35.5896ZM263.989 25.94C263.989 22.4932 263.321 19.2338 261.806 16.3159L252.931 20.9241C253.576 22.1662 253.989 23.7868 253.989 25.94H263.989ZM261.824 16.3504C260.341 13.4386 258.196 11.0788 255.388 9.4411L250.35 18.0789C251.382 18.6812 252.237 19.5614 252.914 20.8896L261.824 16.3504ZM255.388 9.4411C252.606 7.81794 249.494 7.08 246.209 7.08V17.08C247.964 17.08 249.292 17.4621 250.35 18.0789L255.388 9.4411ZM246.209 7.08C242.922 7.08 239.809 7.8185 237.008 9.41878L241.97 18.1012C243.089 17.4615 244.456 17.08 246.209 17.08V7.08ZM236.97 9.4411C234.162 11.0788 232.017 13.4386 230.534 16.3504L239.444 20.8896C240.121 19.5614 240.976 18.6812 242.008 18.0789L236.97 9.4411ZM230.551 16.3159C229.036 19.2337 228.369 22.4932 228.369 25.94H238.369C238.369 23.7868 238.781 22.1662 239.426 20.9241L230.551 16.3159ZM228.369 25.94C228.369 29.3898 229.037 32.6524 230.534 35.5896L239.444 31.0504C238.78 29.7476 238.369 28.0902 238.369 25.94H228.369ZM230.534 35.5896C232.01 38.4883 234.136 40.8475 236.903 42.5196L242.074 33.9604C241.002 33.3125 240.127 32.3917 239.444 31.0504L230.534 35.5896ZM237.008 42.5812C239.809 44.1815 242.922 44.92 246.209 44.92V34.92C244.456 34.92 243.089 34.5385 241.97 33.8988L237.008 42.5812ZM309.698 47V52H314.698V47H309.698ZM301.298 47L297.129 49.7594L298.611 52H301.298V47ZM282.278 18.26L286.448 15.5006L277.278 1.64493V18.26H282.278ZM282.278 47V52H287.278V47H282.278ZM273.878 47H268.878V52H273.878V47ZM273.878 5.06V0.0599964H268.878V5.06H273.878ZM282.278 5.06L286.451 2.30457L284.968 0.0599964H282.278V5.06ZM301.298 33.86L297.126 36.6154L306.298 50.504V33.86H301.298ZM301.298 5.06V0.0599964H296.298V5.06H301.298ZM309.698 5.06H314.698V0.0599964H309.698V5.06ZM309.698 42H301.298V52H309.698V42ZM305.468 44.2406L286.448 15.5006L278.109 21.0194L297.129 49.7594L305.468 44.2406ZM277.278 18.26V47H287.278V18.26H277.278ZM282.278 42H273.878V52H282.278V42ZM278.878 47V5.06H268.878V47H278.878ZM273.878 10.06H282.278V0.0599964H273.878V10.06ZM278.106 7.81542L297.126 36.6154L305.471 31.1046L286.451 2.30457L278.106 7.81542ZM306.298 33.86V5.06H296.298V33.86H306.298ZM301.298 10.06H309.698V0.0599964H301.298V10.06ZM304.698 5.06V47H314.698V5.06H304.698ZM347.159 17.72L342.77 20.1143L344.191 22.72H347.159V17.72ZM330.719 14L333.239 18.3189L330.719 14ZM326.219 18.8L321.782 16.4959L321.782 16.4959L326.219 18.8ZM326.219 33.32L321.782 35.6241L321.799 35.6574L321.817 35.6905L326.219 33.32ZM330.839 38.12L328.359 42.4612L328.359 42.4612L330.839 38.12ZM345.539 37.28L348.718 41.1397L348.74 41.1213L348.762 41.1026L345.539 37.28ZM349.559 30.14L354.452 31.17L355.722 25.14H349.559V30.14ZM335.159 30.14H330.159V35.14H335.159V30.14ZM335.159 23.72V18.72H330.159V23.72H335.159ZM357.839 23.72H362.839V18.72H357.839V23.72ZM357.839 31.04L362.75 31.9817L362.839 31.5151V31.04H357.839ZM354.239 39.14L350.224 36.1608L350.224 36.1608L354.239 39.14ZM347.099 45.14L349.385 49.5872L349.396 49.5812L349.408 49.5751L347.099 45.14ZM326.399 44.66L323.93 49.0078L323.962 49.0258L323.994 49.0433L326.399 44.66ZM318.719 37.04L314.372 39.5091L314.383 39.5293L314.395 39.5494L318.719 37.04ZM318.719 14.96L314.381 12.4736L314.376 12.4822L314.372 12.4909L318.719 14.96ZM326.399 7.34L328.828 11.7108L328.837 11.7058L328.846 11.7007L326.399 7.34ZM349.619 8.06L346.846 12.2202L346.863 12.2313L346.879 12.2423L349.619 8.06ZM356.819 17.72V22.72H363.652L361.585 16.2078L356.819 17.72ZM351.549 15.3257C350.153 12.7666 348.161 10.7163 345.601 9.31452L340.798 18.0855C341.598 18.5237 342.246 19.1534 342.77 20.1143L351.549 15.3257ZM345.601 9.31452C343.069 7.92786 340.256 7.32 337.319 7.32V17.32C338.863 17.32 339.97 17.6321 340.798 18.0855L345.601 9.31452ZM337.319 7.32C334.059 7.32 330.97 8.065 328.2 9.6811L333.239 18.3189C334.308 17.695 335.62 17.32 337.319 17.32V7.32ZM328.2 9.6811C325.418 11.3042 323.273 13.6242 321.782 16.4959L330.657 21.1041C331.326 19.8158 332.181 18.9358 333.239 18.3189L328.2 9.6811ZM321.782 16.4959C320.277 19.3941 319.599 22.6071 319.599 26H329.599C329.599 23.9529 330.002 22.3659 330.657 21.1041L321.782 16.4959ZM319.599 26C319.599 29.4468 320.267 32.7062 321.782 35.6241L330.657 31.0159C330.012 29.7738 329.599 28.1532 329.599 26H319.599ZM321.817 35.6905C323.359 38.5541 325.548 40.8549 328.359 42.4612L333.32 33.7788C332.211 33.1451 331.32 32.2459 330.622 30.9495L321.817 35.6905ZM328.359 42.4612C331.182 44.0747 334.343 44.8 337.679 44.8V34.8C335.816 34.8 334.416 34.4053 333.32 33.7788L328.359 42.4612ZM337.679 44.8C341.785 44.8 345.605 43.7035 348.718 41.1397L342.361 33.4203C341.394 34.2165 339.973 34.8 337.679 34.8V44.8ZM348.762 41.1026C351.79 38.5498 353.622 35.1141 354.452 31.17L344.667 29.1099C344.217 31.2459 343.369 32.5702 342.316 33.4574L348.762 41.1026ZM349.559 25.14H335.159V35.14H349.559V25.14ZM340.159 30.14V23.72H330.159V30.14H340.159ZM335.159 28.72H357.839V18.72H335.159V28.72ZM352.839 23.72V31.04H362.839V23.72H352.839ZM352.929 30.0983C352.516 32.2517 351.634 34.2601 350.224 36.1608L358.255 42.1192C360.525 39.0599 362.043 35.6683 362.75 31.9817L352.929 30.0983ZM350.224 36.1608C348.865 37.9927 347.084 39.511 344.791 40.7049L349.408 49.5751C352.955 47.729 355.934 45.2473 358.255 42.1192L350.224 36.1608ZM344.814 40.6928C342.717 41.7704 340.275 42.36 337.379 42.36V52.36C341.684 52.36 345.722 51.4696 349.385 49.5872L344.814 40.6928ZM337.379 42.36C334.111 42.36 331.289 41.6402 328.805 40.2767L323.994 49.0433C328.069 51.2798 332.567 52.36 337.379 52.36V42.36ZM328.869 40.3122C326.403 38.9122 324.482 37.0085 323.044 34.5306L314.395 39.5494C316.717 43.5515 319.915 46.7278 323.93 49.0078L328.869 40.3122ZM323.067 34.5709C321.699 32.1611 320.959 29.3481 320.959 26H310.959C310.959 30.8919 312.06 35.4389 314.372 39.5091L323.067 34.5709ZM320.959 26C320.959 22.6519 321.699 19.8389 323.067 17.4291L314.372 12.4909C312.06 16.5611 310.959 21.1081 310.959 26H320.959ZM323.057 17.4464C324.494 14.9401 326.401 13.0591 328.828 11.7108L323.971 2.96921C319.918 5.22086 316.705 8.41987 314.381 12.4736L323.057 17.4464ZM328.846 11.7007C331.331 10.3066 334.12 9.58 337.319 9.58V-0.420001C332.519 -0.420001 328.028 0.693403 323.953 2.97928L328.846 11.7007ZM337.319 9.58C341.183 9.58 344.29 10.5163 346.846 12.2202L352.393 3.89974C347.989 0.963692 342.895 -0.420001 337.319 -0.420001V9.58ZM346.879 12.2423C349.347 13.8592 351.063 16.1107 352.054 19.2322L361.585 16.2078C359.936 11.0093 356.852 6.82078 352.36 3.87769L346.879 12.2423ZM356.819 12.72H347.159V22.72H356.819V12.72ZM119.3 93.92H114.3V98.92H119.3V93.92ZM135.5 93.92H140.5V88.92H135.5V93.92ZM135.5 95V100H140.5V95H135.5ZM118.1 95H113.1V100H118.1V95ZM118.1 52.76V47.76H113.1V52.76H118.1ZM119.3 52.76H124.3V47.76H119.3V52.76ZM119.3 98.92H135.5V88.92H119.3V98.92ZM130.5 93.92V95H140.5V93.92H130.5ZM135.5 90H118.1V100H135.5V90ZM123.1 95V52.76H113.1V95H123.1ZM118.1 57.76H119.3V47.76H118.1V57.76ZM114.3 52.76V93.92H124.3V52.76H114.3ZM165.172 83.36L169.852 81.5991L168.633 78.36H165.172V83.36ZM144.292 83.36V78.36H140.848L139.62 81.578L144.292 83.36ZM139.852 95V100H143.296L144.524 96.782L139.852 95ZM138.472 95L133.801 93.2152L131.209 100H138.472V95ZM154.132 54.02V49.02H150.69L149.461 52.2352L154.132 54.02ZM155.332 54.02L160.005 52.2412L158.779 49.02H155.332V54.02ZM170.932 95V100H178.185L175.605 93.2212L170.932 95ZM169.552 95L164.872 96.7609L166.091 100H169.552V95ZM164.752 82.28V87.28H172.003L169.425 80.5022L164.752 82.28ZM154.732 55.94L159.405 54.1622L154.732 41.8774L150.059 54.1622L154.732 55.94ZM144.712 82.28L140.039 80.5022L137.46 87.28H144.712V82.28ZM165.172 78.36H144.292V88.36H165.172V78.36ZM139.62 81.578L135.18 93.218L144.524 96.782L148.964 85.142L139.62 81.578ZM139.852 90H138.472V100H139.852V90ZM143.142 96.7848L158.802 55.8048L149.461 52.2352L133.801 93.2152L143.142 96.7848ZM154.132 59.02H155.332V49.02H154.132V59.02ZM150.659 55.7988L166.259 96.7788L175.605 93.2212L160.005 52.2412L150.659 55.7988ZM170.932 90H169.552V100H170.932V90ZM174.232 93.2391L169.852 81.5991L160.492 85.1209L164.872 96.7609L174.232 93.2391ZM169.425 80.5022L159.405 54.1622L150.059 57.7178L160.079 84.0578L169.425 80.5022ZM150.059 54.1622L140.039 80.5022L149.385 84.0578L159.405 57.7178L150.059 54.1622ZM144.712 87.28H164.752V77.28H144.712V87.28ZM205.527 58.28L209.005 54.6882L209.005 54.6882L205.527 58.28ZM205.527 89.48L209.005 93.0718L209.005 93.0718L205.527 89.48ZM177.807 95H172.807V100H177.807V95ZM177.807 52.76V47.76H172.807V52.76H177.807ZM204.687 88.64L208.203 92.1955L208.203 92.1955L204.687 88.64ZM204.687 59.12L208.203 55.5645L208.203 55.5645L204.687 59.12ZM179.007 53.84V48.84H174.007V53.84H179.007ZM179.007 93.92H174.007V98.92H179.007V93.92ZM188.907 57.76C195.385 57.76 199.486 59.3897 202.049 61.8718L209.005 54.6882C203.968 49.8103 196.989 47.76 188.907 47.76V57.76ZM202.049 61.8718C204.63 64.3712 206.227 68.1274 206.227 73.88H216.227C216.227 66.1926 214.024 59.5488 209.005 54.6882L202.049 61.8718ZM206.227 73.88C206.227 79.6326 204.63 83.3888 202.049 85.8882L209.005 93.0718C214.024 88.2112 216.227 81.5674 216.227 73.88H206.227ZM202.049 85.8882C199.486 88.3703 195.385 90 188.907 90V100C196.989 100 203.968 97.9497 209.005 93.0718L202.049 85.8882ZM188.907 90H177.807V100H188.907V90ZM182.807 95V52.76H172.807V95H182.807ZM177.807 57.76H188.907V47.76H177.807V57.76ZM188.907 98.92C196.662 98.92 203.391 96.9525 208.203 92.1955L201.172 85.0845C198.863 87.3675 195.072 88.92 188.907 88.92V98.92ZM208.203 92.1955C212.947 87.5048 215.027 81.1662 215.027 73.88H205.027C205.027 79.2338 203.548 82.7352 201.172 85.0845L208.203 92.1955ZM215.027 73.88C215.027 66.5938 212.947 60.2552 208.203 55.5645L201.172 62.6754C203.548 65.0248 205.027 68.5262 205.027 73.88H215.027ZM208.203 55.5645C203.391 50.8075 196.662 48.84 188.907 48.84V58.84C195.072 58.84 198.863 60.3925 201.172 62.6754L208.203 55.5645ZM188.907 48.84H179.007V58.84H188.907V48.84ZM174.007 53.84V93.92H184.007V53.84H174.007ZM179.007 98.92H188.907V88.92H179.007V98.92ZM221.136 52.76H226.136V47.76H221.136V52.76ZM221.136 95V100H226.136V95H221.136ZM219.936 95H214.936V100H219.936V95ZM219.936 52.76V47.76H214.936V52.76H219.936ZM216.136 52.76V95H226.136V52.76H216.136ZM221.136 90H219.936V100H221.136V90ZM224.936 95V52.76H214.936V95H224.936ZM219.936 57.76H221.136V47.76H219.936V57.76ZM232.562 53.84V48.84H227.562V53.84H232.562ZM232.562 73.34H227.562V78.34H232.562V73.34ZM250.202 73.34H255.202V68.34H250.202V73.34ZM250.202 74.42V79.42H255.202V74.42H250.202ZM232.562 74.42V69.42H227.562V74.42H232.562ZM232.562 93.92H227.562V98.92H232.562V93.92ZM252.002 93.92H257.002V88.92H252.002V93.92ZM252.002 95V100H257.002V95H252.002ZM231.362 95H226.362V100H231.362V95ZM231.362 52.76V47.76H226.362V52.76H231.362ZM252.002 52.76H257.002V47.76H252.002V52.76ZM252.002 53.84V58.84H257.002V53.84H252.002ZM227.562 53.84V73.34H237.562V53.84H227.562ZM232.562 78.34H250.202V68.34H232.562V78.34ZM245.202 73.34V74.42H255.202V73.34H245.202ZM250.202 69.42H232.562V79.42H250.202V69.42ZM227.562 74.42V93.92H237.562V74.42H227.562ZM232.562 98.92H252.002V88.92H232.562V98.92ZM247.002 93.92V95H257.002V93.92H247.002ZM252.002 90H231.362V100H252.002V90ZM236.362 95V52.76H226.362V95H236.362ZM231.362 57.76H252.002V47.76H231.362V57.76ZM247.002 52.76V53.84H257.002V52.76H247.002ZM252.002 48.84H232.562V58.84H252.002V48.84ZM264.633 93.98L262.433 98.4703L262.451 98.479L262.469 98.4876L264.633 93.98ZM260.073 90.2L255.928 92.9974L255.945 93.0218L255.962 93.046L260.073 90.2ZM258.153 85.04V80.04H252.58L253.182 85.5803L258.153 85.04ZM259.353 85.04L264.302 84.3329L263.689 80.04H259.353V85.04ZM260.853 89.24L256.511 91.7207L256.538 91.7669L256.565 91.8125L260.853 89.24ZM264.753 92.84L262.283 97.1873L262.303 97.1991L262.324 97.2108L264.753 92.84ZM277.593 93.08L279.787 97.5728L279.829 97.5524L279.87 97.5312L277.593 93.08ZM281.553 89.6L277.339 86.9081L277.339 86.9081L281.553 89.6ZM281.373 79.4L277.401 82.4372L277.423 82.466L277.445 82.4944L281.373 79.4ZM277.473 76.4L275.532 81.0082L275.554 81.0171L275.575 81.0258L277.473 76.4ZM271.293 74.42L270.013 79.2535L270.02 79.2554L270.028 79.2573L271.293 74.42ZM264.753 72.26L262.743 76.8382L262.743 76.8382L264.753 72.26ZM260.553 68.96L256.527 71.926L256.571 71.9859L256.617 72.0444L260.553 68.96ZM260.373 57.68L256.15 55.0023L256.141 55.0161L256.133 55.03L260.373 57.68ZM264.753 53.78L262.517 49.3079L262.498 49.3173L262.479 49.327L264.753 53.78ZM277.713 53.66L275.517 58.1519L275.517 58.1519L277.713 53.66ZM281.913 57.02L277.884 59.9819L277.934 60.049L277.985 60.1144L281.913 57.02ZM283.953 61.22V66.22H290.149L288.84 60.1633L283.953 61.22ZM282.753 61.22L277.892 62.3932L278.816 66.22H282.753V61.22ZM281.013 57.68L285.045 54.7232L285.045 54.7232L281.013 57.68ZM277.233 54.68L274.953 59.1302L274.997 59.1525L275.041 59.1738L277.233 54.68ZM265.653 54.62L267.713 59.1755L267.737 59.1647L267.761 59.1536L265.653 54.62ZM261.573 57.92L257.519 54.9925L257.512 55.0032L257.504 55.0138L261.573 57.92ZM261.633 68.42L257.619 71.4016L257.667 71.4663L257.717 71.5294L261.633 68.42ZM265.593 71.48L263.595 76.0635L263.645 76.0852L263.695 76.1058L265.593 71.48ZM271.833 73.46L273.112 68.6265L273.105 68.6246L273.098 68.6227L271.833 73.46ZM278.313 75.62L276.261 80.1796L276.329 80.2102L276.398 80.2387L278.313 75.62ZM282.453 78.86L278.466 81.8772L278.486 81.9036L278.506 81.9297L282.453 78.86ZM282.693 89.9L278.378 87.3741L278.354 87.4137L278.332 87.4537L282.693 89.9ZM278.493 93.92L280.841 98.3344L280.877 98.3151L280.913 98.2952L278.493 93.92ZM271.653 90.42C269.568 90.42 267.995 90.0478 266.796 89.4724L262.469 98.4876C265.27 99.8322 268.377 100.42 271.653 100.42V90.42ZM266.832 89.4897C265.523 88.8484 264.708 88.112 264.184 87.3539L255.962 93.046C257.597 95.408 259.823 97.1916 262.433 98.4703L266.832 89.4897ZM264.217 87.4026C263.572 86.4466 263.232 85.4961 263.123 84.4997L253.182 85.5803C253.474 88.2639 254.414 90.7534 255.928 92.9974L264.217 87.4026ZM258.153 90.04H259.353V80.04H258.153V90.04ZM254.403 85.7471C254.704 87.8526 255.442 89.8492 256.511 91.7207L265.194 86.7593C264.663 85.8308 264.402 85.0274 264.302 84.3329L254.403 85.7471ZM256.565 91.8125C257.942 94.1079 259.952 95.8629 262.283 97.1873L267.223 88.4927C266.034 87.8171 265.443 87.1721 265.14 86.6675L256.565 91.8125ZM262.324 97.2108C265.087 98.7454 268.296 99.34 271.653 99.34V89.34C269.41 89.34 268.019 88.9346 267.181 88.4692L262.324 97.2108ZM271.653 99.34C274.524 99.34 277.276 98.7988 279.787 97.5728L275.398 88.5872C274.469 89.0412 273.261 89.34 271.653 89.34V99.34ZM279.87 97.5312C282.275 96.3009 284.308 94.5736 285.766 92.2919L277.339 86.9081C276.957 87.5064 276.351 88.0991 275.315 88.6288L279.87 97.5312ZM285.766 92.2919C287.216 90.023 287.933 87.4838 287.933 84.8H277.933C277.933 85.6362 277.73 86.297 277.339 86.9081L285.766 92.2919ZM287.933 84.8C287.933 81.7951 287.246 78.7759 285.3 76.3056L277.445 82.4944C277.579 82.6641 277.933 83.2449 277.933 84.8H287.933ZM285.344 76.3627C283.775 74.3101 281.763 72.7559 279.37 71.7742L275.575 81.0258C276.302 81.3241 276.891 81.7699 277.401 82.4372L285.344 76.3627ZM279.413 71.7918C277.581 71.0204 275.264 70.2905 272.558 69.5827L270.028 79.2573C272.521 79.9095 274.324 80.4996 275.532 81.0082L279.413 71.7918ZM272.572 69.5865C269.978 68.8998 268.072 68.2568 266.763 67.6818L262.743 76.8382C264.713 77.7032 267.167 78.5002 270.013 79.2535L272.572 69.5865ZM266.763 67.6818C265.916 67.31 265.165 66.74 264.488 65.8756L256.617 72.0444C258.26 74.14 260.31 75.77 262.743 76.8382L266.763 67.6818ZM264.578 65.994C264.282 65.5923 263.873 64.7068 263.873 62.84H253.873C253.873 66.0932 254.583 69.2877 256.527 71.926L264.578 65.994ZM263.873 62.84C263.873 61.9619 264.096 61.1566 264.613 60.33L256.133 55.03C254.649 57.4034 253.873 60.0381 253.873 62.84H263.873ZM264.595 60.3577C265.115 59.5382 265.872 58.8228 267.027 58.233L262.479 49.327C259.874 50.6572 257.71 52.5418 256.15 55.0023L264.595 60.3577ZM266.989 58.2521C268.125 57.684 269.522 57.34 271.293 57.34V47.34C268.183 47.34 265.22 47.956 262.517 49.3079L266.989 58.2521ZM271.293 57.34C273.189 57.34 274.543 57.6762 275.517 58.1519L279.909 49.1681C277.282 47.8838 274.357 47.34 271.293 47.34V57.34ZM275.517 58.1519C276.726 58.7434 277.444 59.3836 277.884 59.9819L285.941 54.058C284.381 51.9364 282.299 50.3366 279.909 49.1681L275.517 58.1519ZM277.985 60.1144C278.607 60.9033 278.923 61.6184 279.066 62.2767L288.84 60.1633C288.342 57.8616 287.299 55.7767 285.84 53.9256L277.985 60.1144ZM283.953 56.22H282.753V66.22H283.953V56.22ZM287.613 60.0468C287.145 58.1056 286.223 56.3295 285.045 54.7232L276.981 60.6368C277.563 61.4305 277.801 62.0144 277.892 62.3932L287.613 60.0468ZM285.045 54.7232C283.588 52.7374 281.631 51.2623 279.425 50.1862L275.041 59.1738C276.114 59.6977 276.677 60.2226 276.981 60.6368L285.045 54.7232ZM279.512 50.2298C277.007 48.9469 274.205 48.42 271.293 48.42V58.42C273.021 58.42 274.178 58.733 274.953 59.1302L279.512 50.2298ZM271.293 48.42C268.58 48.42 265.973 48.9565 263.544 50.0864L267.761 59.1536C268.772 58.6835 269.925 58.42 271.293 58.42V48.42ZM263.592 50.0645C261.149 51.1698 259.09 52.8178 257.519 54.9925L265.626 60.8475C266.135 60.1422 266.797 59.5902 267.713 59.1755L263.592 50.0645ZM257.504 55.0138C255.842 57.3409 255.073 60.0195 255.073 62.84H265.073C265.073 61.9005 265.304 61.2991 265.641 60.8262L257.504 55.0138ZM255.073 62.84C255.073 65.8819 255.756 68.8942 257.619 71.4016L265.646 65.4384C265.429 65.1458 265.073 64.4381 265.073 62.84H255.073ZM257.717 71.5294C259.295 73.5166 261.269 75.0496 263.595 76.0635L267.591 66.8965C266.797 66.5504 266.13 66.0434 265.548 65.3106L257.717 71.5294ZM263.695 76.1058C265.545 76.8647 267.862 77.5898 270.568 78.2973L273.098 68.6227C270.603 67.9702 268.761 67.3753 267.49 66.8542L263.695 76.1058ZM270.553 78.2935C273.146 78.9799 275.013 79.6181 276.261 80.1796L280.364 71.0604C278.412 70.1818 275.959 69.3801 273.112 68.6265L270.553 78.2935ZM276.398 80.2387C277.179 80.5627 277.856 81.0721 278.466 81.8772L286.44 75.8428C284.809 73.6879 282.726 72.0373 280.228 71.0013L276.398 80.2387ZM278.506 81.9297C278.725 82.2112 279.133 82.9742 279.133 84.8H289.133C289.133 81.5858 288.42 78.3888 286.399 75.7903L278.506 81.9297ZM279.133 84.8C279.133 85.6017 278.926 86.4372 278.378 87.3741L287.008 92.4259C288.379 90.0828 289.133 87.5183 289.133 84.8H279.133ZM278.332 87.4537C277.929 88.1723 277.257 88.8893 276.072 89.5448L280.913 98.2952C283.488 96.8707 285.616 94.9077 287.053 92.3463L278.332 87.4537ZM276.145 89.5056C275.151 90.0343 273.721 90.42 271.653 90.42V100.42C274.944 100.42 278.075 99.8057 280.841 98.3344L276.145 89.5056Z" fill="black"/>
<path d="M55.8781 90L11.0639 40.0067C9.72834 38.4615 8.98882 36.4085 9.00013 34.2775C9.01144 32.1466 9.77272 30.1032 11.1246 28.5753L25.2824 12.5618C25.9721 11.7827 26.7949 11.1609 27.7038 10.7319C28.6126 10.303 29.5895 10.0753 30.5786 10.062C31.5677 10.0488 32.5494 10.2501 33.4675 10.6545C34.3856 11.059 35.2221 11.6586 35.9289 12.4189L50.971 28.6134C52.3718 30.1254 54.2569 30.9727 56.2206 30.9727C58.1842 30.9727 60.0694 30.1254 61.4702 28.6134L76.5816 12.3522C77.9982 10.8311 79.9039 9.98591 81.8845 10.0002C83.8651 10.0144 85.7605 10.8871 87.1588 12.4284L101.811 28.6229C103.19 30.144 103.975 32.196 103.999 34.343C104.024 36.4899 103.285 38.5627 101.941 40.121C101.941 40.121 85.0434 59.8878 81.9049 63.3267" stroke="black" stroke-width="12.5" stroke-miterlimit="10" stroke-linecap="round"/>
</g>
<defs>
<clipPath id="clip0">
<rect width="360" height="100" fill="white"/>
</clipPath>
</defs>
</svg>
